/* XPM */
static char *_eeb24b3f5a84487a02059a872fbe02aBYxKEhIcUojHFjRp[] = {
/* columns rows colors chars-per-pixel */
"64 64 5 1 ",
"  c None",
". c black",
"X c #ACACAC",
"o c gray76",
"O c white",
/* pixels */
"                                                                ",
"                                                                ",
"                                                                ",
"                                                                ",
"                                                                ",
"                                                                ",
"                                                                ",
"                                                                ",
"                                                                ",
"                                                                ",
"                                                                ",
"                                                                ",
"                                                                ",
"                                                                ",
"                                                                ",
"                                                                ",
"                                                                ",
"                                                                ",
"                                                                ",
"                                                                ",
"                      oo              oo                        ",
"                      oo              oo                        ",
"                    ooOOoo          ooOOoo                      ",
"                    ooOOoo          ooOOoo                      ",
"                  ooOOOOOOoo      XXOOOOOOoo                    ",
"                  ooOOOOOOoo      XXOOOOOOoo                    ",
"                ooOOOOOOOOOOoo  ..ooOOOOOOOOoo                  ",
"                ooOOOOOOOOOOoo  ..ooOOOOOOOOoo                  ",
"              ooOOOOOOOOOOOOXXXX..XXOOOOOOOOOOoo                ",
"              ooOOOOOOOOOOOOXXXX..XXOOOOOOOOOOoo                ",
"            ooOOOOOOOOOOOOXXXX....XXOOOOOOOOOOOOoo              ",
"            ooOOOOOOOOOOOOXXXX....XXOOOOOOOOOOOOoo              ",
"            ooOOOOOOOOOOOOoo....XXOOOOOOOOOOOOOOoo              ",
"            ooOOOOOOOOOOOOoo....XXOOOOOOOOOOOOOOoo              ",
"            ooOOOOOOOOOOXXXX..XXXXXXOOOOOOOOOOOOoo              ",
"            ooOOOOOOOOOOXXXX..XXXXXXOOOOOOOOOOOOoo              ",
"              ooOOOOOOOOXX........XXXXOOOOOOOOoo                ",
"              ooOOOOOOOOXX........XXXXOOOOOOOOoo                ",
"                ooOOOOOOXX..XXoo....XXOOOOOOoo                  ",
"                ooOOOOOOXX..XXoo....XXOOOOOOoo                  ",
"                  ooOOOOXX..ooOOXX..XXOOOOoo                    ",
"                  ooOOOOXX..ooOOXX..XXOOOOoo                    ",
"                    ooXX....XXOOXX....XXoo                      ",
"                    ooXX....XXOOXX....XXoo                      ",
"                      XX..XXXXOOXXXXXX..                        ",
"                      XX..XXXXOOXXXXXX..                        ",
"                        ..XXOOOOOOOOoo                          ",
"                        ..XXOOOOOOOOoo                          ",
"                          ooOOOOOOoo                            ",
"                          ooOOOOOOoo                            ",
"                            ooOOoo                              ",
"                            ooOOoo                              ",
"                              oo                                ",
"                              oo                                ",
"                                                                ",
"                                                                ",
"                                                                ",
"                                                                ",
"                                                                ",
"                                                                ",
"                                                                ",
"                                                                ",
"                                                                ",
"                                                                "
};
