/* XPM */
static char *_64d51a9c1064927a4f69fdc82c6bd65eMlm9Txi1H5eGAb8[] = {
/* columns rows colors chars-per-pixel */
"64 64 4 1 ",
"  c None",
". c black",
"X c #ACACAC",
"o c white",
/* pixels */
"                                                                ",
"                                                                ",
"                                                                ",
"                                                                ",
"                                                                ",
"                                                                ",
"                                                                ",
"                                                                ",
"                                                                ",
"                                                                ",
"              oooooooooooooooooooooooooooooooooooo              ",
"              oooooooooooooooooooooooooooooooooooo              ",
"              oo                                oo              ",
"              oo                                oo              ",
"              oo  oooooooooooooooooooooooooooo  oo              ",
"              oo  oooooooooooooooooooooooooooo  oo              ",
"              oo  oooooooooooooooooooooooooooo  oo              ",
"              oo  oooooooooooooooooooooooooooo  oo              ",
"              oo  oooooooooooooooooooooooooooo  oo              ",
"              oo  oooooooooooooooooooooooooooo  oo              ",
"              oo  oooooooooooooooooooooooooooo  oo              ",
"              oo  oooooooooooooooooooooooooooo  oo              ",
"              oo  ooooooXXXXXXXXXXXXXXXXXXoooo  oo              ",
"              oo  ooooooXXXXXXXXXXXXXXXXXXoooo  oo              ",
"              oo  ooooooXXooooooooooooooXXoooo  oo              ",
"              oo  ooooooXXooooooooooooooXXoooo  oo              ",
"              oo  ooooooXXooooooooooooooXXoooo  oo              ",
"              oo  ooooooXXooooooooooooooXXoooo  oo              ",
"              oo  ooooooXXXXXXXXXXXXXXXXXXoooo  oo              ",
"              oo  ooooooXXXXXXXXXXXXXXXXXXoooo  oo              ",
"              oo  oooooooooooooooooooooooooooo  oo              ",
"              oo  oooooooooooooooooooooooooooo  oo              ",
"              oo  oooooooooooooooooooooooooooo  oo              ",
"              oo  oooooooooooooooooooooooooooo  oo              ",
"              oo  oooooooooooooooooooooooooooo  oo              ",
"              oo  oooooooooooooooooooooooooooo  oo              ",
"              oo  oooooooooooooooooooooooooooo  oo              ",
"              oo  oooooooooooooooooooooooooooo  oo              ",
"              oo  oooooooooooooooooooooo....oo  oo              ",
"              oo  oooooooooooooooooooooo....oo  oo              ",
"              oo  oooooooooooooooooooooooo..oo  oo              ",
"              oo  oooooooooooooooooooooooo..oo  oo              ",
"              oo  oooooooooooooooooooooooooooo  oo              ",
"              oo  oooooooooooooooooooooooooooo  oo              ",
"              oo  oooooooooooooooooooooooooooo  oo              ",
"              oo  oooooooooooooooooooooooooooo  oo              ",
"              oo  oooooooooooooooooooooooooooo  oo              ",
"              oo  oooooooooooooooooooooooooooo  oo              ",
"              oo  oooooooooooooooooooooooooooo  oo              ",
"              oo  oooooooooooooooooooooooooooo  oo              ",
"              oo  oooooooooooooooooooooooooooo  oo              ",
"              oo  oooooooooooooooooooooooooooo  oo              ",
"              oo  oooooooooooooooooooooooooooo  oo              ",
"              oo  oooooooooooooooooooooooooooo  oo              ",
"              oo  oooooooooooooooooooooooooooo  oo              ",
"              oo  oooooooooooooooooooooooooooo  oo              ",
"              oo  oooooooooooooooooooooooooooo  oo              ",
"              oo  oooooooooooooooooooooooooooo  oo              ",
"              oo  oooooooooooooooooooooooooooo  oo              ",
"              oo  oooooooooooooooooooooooooooo  oo              ",
"              oo                                oo              ",
"              oo                                oo              ",
"              oooooooooooooooooooooooooooooooooooo              ",
"              oooooooooooooooooooooooooooooooooooo              "
};
