/* XPM */
static char *_0615ea0f3c0493fa3d05bbbf9da1227hXUi11rDXvogsuQa[] = {
/* columns rows colors chars-per-pixel */
"64 64 2 1 ",
"  c None",
". c white",
/* pixels */
"                                                                ",
"                                                                ",
"                                                                ",
"                                                                ",
"                                                                ",
"                           ...........                          ",
"                          .............                         ",
"                         ...............                        ",
"                        .................                       ",
"                       ...................                      ",
"                          .............                         ",
"                          .............                         ",
"                          .............                         ",
"                          .............                         ",
"                          .............                         ",
"                          .............                         ",
"                          .............                         ",
"                          .............                         ",
"                           ...........                          ",
"                               ...                              ",
"                               ...                              ",
"                        .................                       ",
"                       ...................                      ",
"                      .....................                     ",
"                     .......................                    ",
"                    .........................                   ",
"                   ...........................                  ",
"                   ... .......................                  ",
"                   ... ................... ...                  ",
"                   ... ................... ...                  ",
"                   ... ................... ...                  ",
"                   ... ................... ...                  ",
"                   ... ................... ...                  ",
"                   ... ................... ...                  ",
"                   ... ................... ...                  ",
"                   ... ................... ...                  ",
"                    .. ................... ..                   ",
"                     . ................... .                    ",
"                       ...................                      ",
"                       ...................                      ",
"                       ...................                      ",
"                        .................                       ",
"                        .................                       ",
"                         ....       ....                        ",
"                         ...         ...                        ",
"                         ...         ...                        ",
"                        ....         ....                       ",
"                        ....         ....                       ",
"                        ....         ....                       ",
"                        ....         ....                       ",
"                        ....         ....                       ",
"                        ....         ....                       ",
"                        ....         ....                       ",
"                        ....         ....                       ",
"                        ....         ....                       ",
"                        ....         ....                       ",
"                        ....         ....                       ",
"                       .....         .....                      ",
"                                                                ",
"                                                                ",
"                                                                ",
"                                                                ",
"                                                                ",
"                                                                "
};
