/* XPM */
static char *_040cfb001704c49ff2fd2a973de1c2e0LzF78Lgj7h6LD04[] = {
/* columns rows colors chars-per-pixel */
"64 64 25 1 ",
"  c black",
". c gray13",
"X c #3E3E3E",
"o c gray34",
"O c #6D6D6D",
"+ c #808080",
"@ c #909090",
"# c #A5A5A5",
"$ c #B1B1B1",
"% c gray71",
"& c #BBBBBB",
"* c gray77",
"= c #CBCBCB",
"- c #CECECE",
"; c #D2D2D2",
": c #D5D5D5",
"> c #DFDFDF",
", c gray89",
"< c #E7E7E7",
"1 c #EAEAEA",
"2 c #ECECEC",
"3 c #F3F3F3",
"4 c #F4F4F4",
"5 c gray98",
"6 c white",
/* pixels */
"666665#66666666>4 X6 6666666# 6666666666666666666666666666666>4 ",
"6666666666666666 46666666666 666666666666666666.66666666666666> ",
"66666666666666666666666666666.6666666 666&6666&< 666666666666o6 ",
"666666666666666666666 64566666466X66466445664* >56646>66X666<666",
"6666666666666 666  6*&% o.666>44434%X &&,64&5556#X&4666456636666",
"66666666XO&56666 &&*. $##&.6#. o.,5$,3#   #  #      X &$>6*66666",
",666>661 &#Xo#<<,1o&4>$X.#>%     .. #  . #  6 #6.#..      566666",
"o 6.44&6<6<,. X. >4,  6 ##..6#> . #       .666666.$ #  .  666663",
"<#4  X6662*>> XX#,#66666X$ 666X# #  6 # X 66666666>      Xo56666",
"> 6 >6666646#> o..6666666#66666#   666 $..#666666#. 6 # , O66666",
" 666,#666>666>5XX6666666#.X666> Xo66666#>  #6 .6.oX666 # 4666666",
"666664 6 666666,&X66666.$  ,6 $. X 666 #  6#<#$-o 66666# #,66666",
"666664#%X6666665>#66661.  44<66,4&X 6 .  666.#&;&44666    566666",
" 666o  ,X&66666# 66666$ ## #66664>$#%   66666# 44.6 6 X.  366666",
"#36X-  ,>,,666X . 666$44#  6666666 #..#$ 666  <>.6664&X  <366666",
"666X4& X#>556>,#  .6 .    XX6666666 # #   6 .Xo 666664>#.,566666",
"666O6>#X. #&=>5, $$%#  ..>>. 6666666$  .##%  .,6666666 # 54<6666",
"666666>&O   . $#  #. #$   #>566 666  .XX  . #4<X6666666# ,X66666",
"66666663X   .    $  6.$ $  .$<*,56..*o $  .  4>6666666    666666",
"66666666XX o. #. . 666##  .   .#><#XO&>> XX   6666646#.  <666665",
"65666665<X .# .. #66666#6.$ $  . $ #6>#6.# . X6666656>  ><<6666<",
"666666661o 4  6##..666 666#$  X    666666>&X>. 666* $.#$# 566666",
"6666666>.2 $ 666#6 #6.66666#6.& . 666666664 # >>6 $       466666",
"646>66614* 66666666#<. 666 666,# o 6666666>.  #>*#6,6 $ .>&66666",
"66566666,,6666666666, ##6#66666#$X &66666X X    .66666 # >X66666",
"666$66655666666X666   #$<. 6666.> 44%#66o+ #  . 6666666# >O66666",
"664666>*=666666. 6 . .  $ 666666,<X >364X1#<. X. 66666.  >o6666<",
"6,666666o666663$><  .. # 666666665#  .oo46,6 ##.# 6 6 .  #,5>6 5",
"%4666666-66666&  . ###  . 6666666>  X...<*666>&o##<$& #  .>>6665",
"2o666666o=6661<#  . #  6 #,66666X 6.# .# 666664   . ,###  &66666",
"2&666664X5<6o,4  X    666>5%>66.X666>>#X<666664X.  #  6 #X#66666",
"666666<$<5*66516 # . 66666#$464 66666# #666666>#     666 4266666",
"4 666 5>>,6663666 &.. 666    .X$466666>66666666#X.  666666<>666o",
" 666664>>666666666$$ # 6..   X#   66666>666666&.   . 666 3#666,5",
"666664>>X66666666>X$ ##%   X .  ##666666,6 6622.>##X. 6 .#666666",
"66666,#>X6666666XX#  6 $ $&o >  XXX6666##444% ,#    ##%  O666665",
".666X  >X<666661+X>#666 # ., #  ,#  66X. . &$65#66>#X.. 3=66666&",
"1<6..$#>>,>6666.>>#66666# ># 6 > X,45%         6666>$   >15666<.",
"2&5 ><  #>566,6>5>66666.  # 666#>Xo &.>4#     666666#   #>466655",
"<>6 <&.   #&*666 66666#. X 666664X& > .X     oo6666 #  . &666666",
">666<#o     6666666666#X  O66666##> 6 # .  .<#  66&.     O666666",
"666664X  X . 666.6666.X&&5o 666X > 6664#X..oX#5451  6 # ,266666&",
"666665 X X#   6#. 66X. <O#>,>6 .  666664   #>   o.>666 #>26666<1",
"66666>XO ,  &#% ,45%  >X<6>3#> >>.66666># $> 66#>.66666##<666666",
"6666<.X1 >  X .o**&.>4#,666#4.o#>X 66666 #  6666>< 666   5666666",
"666X=#,, 6 >.XX#=<> XX 666665:o > #$66666# 666666<  6 . >1666666",
"566X3,,&666>>XO6>46 * o 666666 .XX>,2666  .X66666#>#*   ><666665",
",66654&666666+36>66614XX66666>&Oo.##X 6>.#>  66666 #o ##>*666666",
"66666$O666665@65666665><>66666;.>> X$#%    #4466666> .  4X666666",
"6666><<66666=65666666<> ,4666O444 X6 #..## Xo+<6666>#X  >O666664",
"666 $><5666<6<=666666  #>>26664#66666.#  X X;&>666664   >X566644",
"#666>>X6666665666666<    #666666666666# XX.>3,*66666>   #>5>6 5,",
"666665X666666666666o##   . 6666666666    ,.>3#66666*     &=66646",
"666666XX66666666662<5>  #   66666666 .  > #6 666664X     X666665",
"#666.>>,>666O66664 34     ##5&6665&&     #66666666>##    266666&",
"#&6 & $>5665,>66OO>5,  X   >,X466=o..##  66666666o >> .o><<666<,",
">666*, .#&-16652 ,<  oXX   oO1561.,3#  .OX666666OX  .o  #,666666",
"666664  .oo ##oo15>.OO > .@@o12-256<&.X1 XX66662>##oOo#4 *666666",
".666,X.*O+*4>.OOX#,o+5>>X+@454,<X # .oO&46156o3=55,X#4  >&666665",
"666>$&  #3>    #>  #5> 6 456#66666<,6&4>.#3&%65 6 ,#4 664466666>",
"66666#>644666441X664566665666666666666>666>6644666>,X6666$666663",
"666666666666664>6666666666666666666666666666666666656666666666,>",
"666666666666666666666666666666666666666666666666666,o6666 ##6 ,>",
"$6666666666666.X666666666266666666XX6X666666666666&4  66.o##& ##"
};
